<svg version="1.0" width="500pt" height="142.4pt" viewBox="0 0 500 142.415" preserveAspectRatio="xMidYMid meet" xmlns="http://www.w3.org/2000/svg">
  <defs></defs>
  <path d="M 267.163 1.668 C 267.163 3.156 267.242 3.234 268.338 3.234 C 269.121 3.234 269.513 3.43 269.513 3.822 C 269.513 4.174 269.787 4.527 270.179 4.684 C 270.727 4.879 270.688 4.997 269.983 5.232 C 269.278 5.506 269.121 5.858 269.121 7.425 L 269.121 9.305 L 210.688 9.187 L 152.295 9.109 L 150.689 10.049 C 149.788 10.597 148.104 12.164 146.929 13.574 C 145.01 15.885 144.619 16.159 143.326 16.159 C 142.073 16.159 141.76 16.394 140.506 18.117 C 139.723 19.213 139.096 20.153 139.096 20.232 C 139.096 20.349 139.449 20.467 139.88 20.545 C 140.585 20.663 140.467 20.858 139.057 22.503 C 137.843 23.913 137.216 24.383 136.355 24.383 C 135.728 24.383 135.18 24.54 135.102 24.696 C 135.062 24.892 131.89 25.519 128.13 26.106 C 124.371 26.694 116.185 28.143 109.919 29.357 C 95.742 32.02 93.509 32.216 90.337 31.041 C 83.366 28.456 82.191 28.182 78.392 28.182 C 71.068 28.182 17.139 34.801 8.68 36.72 C 7.27 37.033 5.703 37.386 5.194 37.464 C 2.805 37.816 2.766 39.031 4.724 52.19 C 5.781 59.278 8.562 80.623 9.267 87.32 C 9.424 88.887 9.815 90.14 10.325 90.806 C 11.069 91.706 11.304 91.785 12.87 91.55 C 13.849 91.432 19.136 89.709 24.659 87.751 C 36.682 83.521 65.429 73.652 90.533 65.114 C 100.559 61.707 115.206 56.733 123.078 54.03 C 131.538 51.171 138.352 49.057 139.762 48.9 L 142.112 48.626 L 142.347 50.584 C 142.464 51.641 142.464 53.13 142.347 53.874 C 142.19 54.853 142.464 55.949 143.404 58.104 C 144.579 60.688 144.658 61.237 144.462 63.665 C 144.227 66.524 141.916 73.769 137.373 85.871 C 134.318 93.978 133.77 96.406 134.357 98.678 C 134.945 100.792 137.804 103.651 140.232 104.474 C 143.365 105.531 148.927 106.08 151.864 105.571 C 156.329 104.787 157.66 103.299 158.013 98.482 C 158.248 95.153 158.443 94.683 165.023 79.213 C 169.84 67.895 171.211 65.271 173.208 63.312 L 174.775 61.785 L 175.637 62.96 C 177.046 64.918 179.161 66.68 180.61 67.111 C 181.511 67.385 185.467 67.503 191.381 67.385 C 200.545 67.268 200.819 67.229 202.542 66.289 C 203.482 65.741 204.814 64.566 205.48 63.665 C 206.576 62.177 206.811 62.02 208.456 62.02 C 210.728 61.981 210.884 62.333 210.375 65.819 C 210.062 68.09 210.101 68.521 210.649 68.913 C 211.002 69.187 211.393 69.304 211.55 69.226 C 211.707 69.109 212.255 67.464 212.764 65.584 C 213.43 62.96 213.861 62.02 214.448 61.746 C 215.192 61.432 215.271 61.002 215.388 56.38 C 215.467 52.425 215.584 51.406 216.054 51.406 C 216.406 51.406 216.641 51.916 216.72 52.856 C 216.837 54.305 216.876 54.344 218.639 54.461 L 220.44 54.579 L 221.106 57.986 C 227.725 92.216 247.855 121.08 278.756 140.818 L 281.537 142.581 L 290.231 128.912 C 295.009 121.393 299.004 115.009 299.121 114.696 C 299.239 114.343 298.299 113.403 296.458 112.072 C 288.155 106.08 279.187 97.816 273.899 91.276 C 264.578 79.761 258.116 66.524 254.866 52.346 C 254.357 49.997 253.769 47.255 253.652 46.237 L 253.377 44.435 L 255.453 44.2 C 256.628 44.083 262.581 43.809 268.691 43.574 C 279.03 43.182 279.813 43.182 280.283 43.809 C 280.597 44.279 281.497 44.553 283.103 44.67 C 285.022 44.788 285.492 44.984 285.805 45.688 C 286.119 46.433 286.432 46.511 289.291 46.472 C 291.719 46.433 293.952 46.002 299.082 44.631 L 305.74 42.79 L 317.881 42.399 C 324.578 42.164 338.011 41.733 347.802 41.42 C 357.593 41.106 365.779 40.675 366.014 40.48 C 366.249 40.284 367.463 40.01 368.716 39.892 C 370.87 39.618 370.948 39.54 370.948 38.443 L 370.948 37.307 L 391.51 37.307 C 404.943 37.307 412.071 37.425 412.071 37.699 C 412.071 37.895 413.05 38.091 414.225 38.091 C 415.4 38.091 416.379 37.895 416.379 37.699 C 416.379 37.425 426.483 37.307 445.948 37.307 C 466.313 37.307 475.517 37.425 475.517 37.699 C 475.517 37.973 476.457 38.091 477.984 38.012 C 480.295 37.895 480.412 37.856 480.53 36.798 C 480.647 35.897 480.843 35.741 481.822 35.741 C 482.84 35.741 482.958 35.623 482.958 34.566 C 482.958 33.43 482.997 33.391 484.877 33.391 C 486.404 33.391 486.874 33.234 486.992 32.686 C 487.149 32.059 487.188 32.059 487.227 32.686 C 487.266 33.352 487.932 33.391 495.295 33.391 L 503.323 33.391 L 503.323 31.903 C 503.323 30.414 503.284 30.375 501.208 29.749 C 498.389 28.848 495.53 26.89 494.355 25.049 L 493.415 23.6 L 490.36 23.6 C 488.323 23.6 487.266 23.757 487.149 24.07 C 487.031 24.344 486.914 24.187 486.914 23.678 C 486.874 23.012 486.639 22.817 485.895 22.817 C 485.308 22.817 484.916 22.582 484.916 22.268 C 484.916 21.955 484.525 21.642 484.055 21.563 L 483.154 21.446 L 483.075 11.498 C 482.997 4.762 482.84 1.394 482.527 1.041 C 482.214 0.65 480.961 0.493 477.827 0.493 C 472.854 0.493 472.775 0.532 472.775 4.566 C 472.775 6.994 472.579 7.503 468.859 15.258 C 466.705 19.723 464.942 23.639 464.942 23.874 C 464.942 24.266 461.339 24.383 448.298 24.383 C 434.943 24.383 431.653 24.266 431.653 23.874 C 431.653 23.561 430.635 23.208 428.911 22.895 C 423.546 21.994 419.708 19.018 416.026 12.869 L 413.99 9.501 L 395.974 9.501 C 380.269 9.501 377.998 9.422 377.998 8.913 C 377.998 8.443 377.293 8.326 374.081 8.326 C 370.674 8.326 370.048 8.208 369.382 7.543 C 368.951 7.112 368.285 6.759 367.894 6.759 C 367.502 6.759 366.993 6.563 366.719 6.289 C 366.131 5.702 312.359 3.939 311.34 4.449 C 310.988 4.644 310.166 4.801 309.5 4.801 C 308.638 4.801 308.129 5.075 307.659 5.78 C 307.228 6.407 306.641 6.759 305.975 6.759 C 304.996 6.759 304.918 6.642 305.074 5.467 C 305.153 4.801 305.035 3.744 304.8 3.117 C 304.369 2.06 304.369 2.06 300.414 2.06 C 297.046 2.06 296.301 1.942 295.479 1.276 C 294.265 0.336 293.677 0.297 292.972 1.12 C 292.502 1.668 291.171 1.746 281.067 1.629 C 270.962 1.511 269.591 1.433 268.651 0.806 C 267.242 -0.173 267.163 -0.134 267.163 1.668 Z M 284.787 3.665 C 283.103 4.37 278.168 5.193 275.779 5.193 L 273.508 5.193 L 273.939 4.214 L 274.409 3.234 L 280.087 3.274 C 284.317 3.274 285.531 3.391 284.787 3.665 Z M 383.403 11.929 C 383.168 12.634 382.306 12.751 382.306 12.086 C 382.306 11.733 382.58 11.459 382.933 11.459 C 383.285 11.459 383.481 11.655 383.403 11.929 Z M 387.985 11.811 C 388.259 12.281 387.515 12.751 387.006 12.438 C 386.575 12.164 386.849 11.459 387.397 11.459 C 387.593 11.459 387.828 11.616 387.985 11.811 Z M 392.489 12.086 C 392.489 12.751 391.627 12.634 391.392 11.929 C 391.314 11.655 391.51 11.459 391.862 11.459 C 392.215 11.459 392.489 11.733 392.489 12.086 Z M 480.53 17.334 C 480.686 20.663 480.412 20.858 475.517 20.858 C 470.895 20.858 470.19 20.506 470.582 18.313 C 470.739 17.49 471.365 16.315 471.992 15.689 C 473.128 14.592 473.206 14.553 476.77 14.67 L 480.412 14.788 L 480.53 17.334 Z M 331.706 18.587 L 331.823 19.683 L 337.463 19.683 L 343.103 19.683 L 343.22 18.587 L 343.338 17.529 L 351.17 17.529 L 359.003 17.529 L 359.121 18.587 C 359.238 19.644 359.317 19.683 361.588 19.683 C 362.881 19.683 363.899 19.84 363.899 20.075 C 363.899 20.31 362.881 20.467 361.588 20.467 C 359.473 20.467 359.238 20.545 359.121 21.328 C 359.003 22.229 359.003 22.229 351.17 22.229 C 343.338 22.229 343.338 22.229 343.22 21.328 C 343.103 20.467 342.985 20.467 337.463 20.467 C 331.941 20.467 331.823 20.467 331.706 21.328 C 331.588 22.229 331.549 22.229 323.677 22.347 L 315.727 22.425 L 315.727 21.446 C 315.727 20.663 315.531 20.467 314.748 20.467 C 314.199 20.467 313.769 20.271 313.769 20.075 C 313.769 19.84 314.121 19.683 314.552 19.683 C 314.983 19.683 315.453 19.409 315.531 19.096 C 315.649 18.783 315.805 18.234 315.923 17.921 C 316.079 17.412 317.176 17.334 323.834 17.412 L 331.588 17.529 L 331.706 18.587 Z M 410.504 22.033 L 410.504 24.383 L 393.076 24.383 L 375.648 24.383 L 375.648 22.817 L 375.648 21.289 L 372.828 21.172 C 371.066 21.093 369.969 20.858 369.891 20.584 C 369.695 19.997 372.828 19.879 394.369 19.762 L 410.504 19.683 L 410.504 22.033 Z M 410.504 33.195 L 410.504 34.174 L 390.648 34.096 C 379.682 34.057 371.849 33.978 373.22 33.9 C 375.335 33.783 375.648 33.626 375.648 32.999 C 375.648 32.216 376.04 32.216 393.076 32.216 L 410.504 32.216 L 410.504 33.195 Z M 464.942 32.803 C 464.942 33.273 465.647 33.391 469.055 33.391 C 471.522 33.391 473.167 33.548 473.167 33.783 C 473.167 34.057 463.846 34.135 445.869 34.096 C 430.83 34.057 421.47 33.939 425.112 33.9 C 431.34 33.783 431.653 33.743 431.653 32.999 C 431.653 32.216 431.966 32.216 448.298 32.216 C 462.828 32.216 464.942 32.294 464.942 32.803 Z M 204.501 53.717 L 204.501 61.119 L 203.482 62.372 C 201.407 64.801 200.897 64.918 190.793 65.036 C 181.707 65.153 181.59 65.153 180.219 64.252 C 179.475 63.743 178.378 62.647 177.791 61.785 C 176.694 60.218 176.694 60.218 177.321 58.573 C 177.908 57.046 177.908 56.85 177.36 55.989 C 177.007 55.44 176.89 54.892 177.086 54.696 C 177.281 54.5 177.477 53.325 177.556 52.111 C 177.634 50.858 177.712 49.84 177.791 49.84 C 178.535 49.84 181.903 52.033 182.138 52.699 C 182.334 53.169 182.804 54.422 183.156 55.519 C 184.096 58.182 186.877 60.845 189.814 61.942 C 192.242 62.842 193.182 62.882 193.456 62.059 C 193.535 61.785 192.751 61.197 191.459 60.61 C 188.952 59.513 186.72 57.359 186.093 55.44 C 185.545 53.874 186.093 51.093 187.268 49.135 C 187.973 47.999 188.208 47.882 189.971 47.882 C 191.263 47.882 192.046 47.686 192.242 47.333 C 192.555 46.746 194.318 46.55 201.289 46.393 L 204.501 46.315 L 204.501 53.717 Z"></path>
</svg>