<svg version="1.0" width="500pt" height="322.4pt" viewBox="0 0 500 322.4" preserveAspectRatio="xMidYMid meet" xmlns="http://www.w3.org/2000/svg">
  <defs></defs>
  <path d="M 35.113 321.697 C 30.112 320.604 25.931 318.689 23.353 316.267 C 21.752 314.782 18 308.609 18 307.437 L 18 306.461 L 9.484 306.461 C 3.388 306.461 0.85 306.343 0.498 305.992 C -0.166 305.328 -0.166 275.557 0.498 274.893 C 0.85 274.541 3.388 274.424 9.484 274.424 L 18 274.424 L 18 260.125 C 18 249.498 17.884 245.63 17.532 245.005 C 16.868 243.872 16.868 236.605 17.532 235.472 C 17.806 234.964 18 233.206 18 231.292 L 18 227.932 L 36.559 227.932 L 55.077 227.932 L 55.195 225.158 L 55.312 222.345 L 93.795 222.384 C 114.969 222.423 140.717 222.306 151.031 222.111 C 171.815 221.759 173.455 221.564 181.973 218.751 C 198.695 213.164 210.298 199.998 213.892 182.495 C 215.612 174.134 215.768 162.843 214.283 154.639 C 214.048 153.428 214.088 153.428 217.721 151.826 C 231.708 145.692 248.898 141.863 269.018 140.379 C 277.027 139.793 296.054 140.144 301.445 140.965 C 303.595 141.277 307.541 142.098 310.236 142.762 C 325.121 146.395 335.397 144.793 342.625 137.722 C 346.687 133.737 348.914 129.517 350.907 122.055 C 351.337 120.453 353.915 111.233 356.571 101.544 C 366.808 64.702 368.37 56.888 368.995 38.643 C 369.27 30.947 368.722 17.272 368.059 14.381 C 367.707 13.014 367.667 10.904 367.862 7.427 C 368.097 3.012 368.254 2.348 369.073 1.371 C 369.582 0.746 370.558 0.16 371.223 0.004 C 372.16 -0.191 454.557 7.036 464.403 8.169 C 466.043 8.365 466.472 8.599 466.864 9.38 C 467.097 9.927 467.293 10.709 467.293 11.099 C 467.293 11.607 467.566 11.881 468.074 11.881 C 468.699 11.881 468.855 11.607 468.855 10.592 C 468.855 8.873 470.927 4.77 472.451 3.481 C 475.694 0.746 480.498 -0.191 484.406 1.098 C 490.382 3.09 493.703 10.162 491.32 15.866 C 491.087 16.452 491.398 16.53 494.133 16.647 L 497.181 16.764 L 497.845 19.499 C 499.408 25.711 499.876 30.517 499.876 40.987 C 499.916 51.497 499.487 56.927 498.118 63.257 C 496.83 69.39 482.061 107.561 464.089 151.357 C 454.4 174.916 453.462 178.002 453.462 186.324 C 453.502 191.754 454.127 194.723 456.197 198.63 C 461.003 207.812 470.965 214.024 489.367 219.337 C 493 220.431 496.438 221.603 496.946 221.994 C 500.306 224.494 501.049 230.198 498.393 233.285 C 497.533 234.261 497.298 234.339 493.43 234.457 C 491.009 234.496 488.312 234.847 486.789 235.277 C 479.092 237.426 472.489 244.028 468.974 253.132 C 468.388 254.616 467.684 256.062 467.449 256.257 C 467.216 256.491 466.708 257.781 466.316 259.187 C 465.457 262.508 462.526 269.892 460.573 273.799 L 459.01 276.885 L 460.183 279.464 C 460.846 280.87 462.253 284.582 463.386 287.708 C 464.52 290.833 465.769 294.076 466.2 294.896 C 468.582 299.545 466.824 305.484 462.448 307.711 C 459.948 309 457.566 308.805 453.424 307.086 C 446.118 303.999 443.773 303.843 439.164 306.304 L 436.39 307.75 L 434.514 306.89 L 432.64 305.992 L 429.318 308.18 L 425.958 310.368 L 419.669 310.368 C 414.081 310.368 413.378 310.446 413.066 311.071 C 412.871 311.422 412.128 313.727 411.424 316.15 L 410.135 320.525 L 406.19 320.525 L 402.244 320.525 L 400.486 315.525 L 398.728 310.563 L 341.023 310.446 L 283.278 310.368 L 283.278 308.414 L 283.278 306.461 L 167.869 306.461 L 52.499 306.461 L 51.522 307.945 C 50.975 308.727 50.154 310.133 49.686 311.071 L 48.865 312.712 L 46.482 312.712 L 44.138 312.712 L 41.833 317.595 C 40.583 320.291 39.294 322.479 39.02 322.44 C 38.747 322.44 36.989 322.088 35.113 321.697 Z M 460.221 302.358 C 462.526 300.405 462.645 297.201 460.495 295.17 C 457.525 292.357 452.837 294.388 452.837 298.491 C 452.837 299.467 453.111 300.678 453.462 301.225 C 454.947 303.452 458.23 303.999 460.221 302.358 Z M 279.88 208.905 C 282.145 200.506 282.77 190.582 281.482 184.253 C 280.271 178.197 277.262 172.532 272.652 167.61 C 268.784 163.468 264.995 160.616 257.922 156.514 C 257.494 156.28 257.533 155.928 258.236 154.561 C 258.704 153.662 259.329 152.92 259.602 152.92 C 260.462 152.92 266.83 155.225 269.018 156.319 C 277.145 160.382 282.654 166.32 288.396 177.221 C 291.404 182.925 292.499 184.331 294.531 185.073 L 295.897 185.542 L 295.624 193.747 L 295.39 201.951 L 297.539 202.889 C 300.079 203.983 302.462 206.444 303.439 209.062 C 304.063 210.703 304.181 210.781 305.353 210.585 C 309.806 209.726 318.207 206.132 322.738 203.123 C 325.708 201.17 329.38 197.38 331.802 193.825 C 337.077 186.05 338.17 177.299 334.81 169.485 C 332.857 164.875 327.856 158.897 323.754 156.28 C 311.134 148.231 288.358 143.387 269.214 144.715 C 251.671 145.965 237.919 151.005 228.855 159.522 C 222.136 165.852 219.128 172.259 219.166 180.229 C 219.166 187.144 221.863 194.294 226.785 200.388 C 232.841 207.929 239.405 210.937 253 212.461 C 253.665 212.5 259.72 212.617 266.518 212.656 L 278.864 212.695 L 279.88 208.905 Z M 485.929 15.124 C 486.867 13.912 487.023 13.326 487.023 11.295 C 487.023 9.263 486.867 8.677 485.929 7.466 C 484.444 5.474 482.764 4.692 480.146 4.692 C 477.333 4.653 474.99 6.099 473.895 8.482 C 472.997 10.474 472.959 11.842 473.74 13.717 C 474.912 16.491 475.107 16.569 480.225 16.569 L 484.836 16.569 L 485.929 15.124 Z" style="" transform="matrix(-1, 0, 0, -1, 499.999647, 322.44065)"></path>
</svg>